<svg width="55" height="55" viewBox="0 0 55 55" fill="none" xmlns="http://www.w3.org/2000/svg">
<path d="M5.6825 20.1639L25.966 31.8057C26.4167 32.0294 26.6417 32.0287 27.0917 32.0274C27.5417 32.0261 27.7667 32.0255 28.216 31.7992L48.4323 20.0411C48.8817 19.8148 49.106 19.5891 49.3297 19.1385C49.7765 18.0122 49.5476 16.6628 48.4207 15.9911L28.1371 4.34932C27.4609 3.90126 26.5609 3.90384 25.8872 4.35578L5.67086 16.1139C5.22151 16.3402 4.99715 16.5659 4.77345 17.0165C4.32668 18.1428 4.55556 19.4921 5.6825 20.1639ZM48.4465 24.991L47.9959 24.7673L28.229 36.2992C27.5553 36.7511 26.6553 36.7537 25.979 36.3057L6.14607 24.8876L5.69672 25.1139C4.57366 25.7921 4.35254 27.1428 4.80578 28.2665C5.03207 28.7158 5.25771 28.9402 5.70836 29.1639L25.9919 40.8056C26.6682 41.2537 27.5682 41.2511 28.2419 40.7992L48.4582 29.041C49.5812 28.3628 49.8024 27.0122 49.3491 25.8885C49.1228 25.4391 48.8972 25.2148 48.4465 24.991ZM48.4724 33.991L48.0218 33.7673L28.2548 45.2992C27.5811 45.7511 26.6811 45.7537 26.0048 45.3056L6.17193 33.8876L5.72258 34.1138C4.59953 34.7921 4.37841 36.1427 4.83164 37.2664C5.05793 37.7158 5.28357 37.9401 5.73422 38.1638L26.0178 49.8056C26.694 50.2537 27.594 50.2511 28.2677 49.7991L48.484 38.041C49.6071 37.3628 49.8282 36.0121 49.375 34.8884C49.1487 34.4391 48.923 34.2147 48.4724 33.991Z" fill="#605F5F"/>
</svg>
