<svg width="55" height="55" viewBox="0 0 55 55" fill="none" xmlns="http://www.w3.org/2000/svg">
<path d="M5.68256 20.1639L25.9661 31.8057C26.4167 32.0294 26.6417 32.0287 27.0917 32.0274C27.5417 32.0261 27.7667 32.0255 28.2161 31.7992L48.4324 20.0411C48.8817 19.8148 49.1061 19.5891 49.3298 19.1385C49.7766 18.0122 49.5477 16.6628 48.4207 15.9911L28.1372 4.34932C27.4609 3.90126 26.5609 3.90384 25.8872 4.35578L5.67092 16.1139C5.22157 16.3402 4.99722 16.5659 4.77351 17.0165C4.32674 18.1428 4.55562 19.4921 5.68256 20.1639ZM48.4466 24.991L47.996 24.7673L28.229 36.2992C27.5553 36.7511 26.6553 36.7537 25.979 36.3057L6.14613 24.8876L5.69678 25.1139C4.57373 25.7921 4.35261 27.1428 4.80584 28.2665C5.03213 28.7158 5.25777 28.9402 5.70842 29.1639L25.992 40.8056C26.6682 41.2537 27.5682 41.2511 28.2419 40.7992L48.4582 29.041C49.5813 28.3628 49.8024 27.0122 49.3492 25.8885C49.1229 25.4391 48.8972 25.2148 48.4466 24.991ZM48.4725 33.991L48.0218 33.7673L28.2549 45.2992C27.5812 45.7511 26.6812 45.7537 26.0049 45.3056L6.17199 33.8876L5.72264 34.1138C4.59959 34.7921 4.37847 36.1427 4.8317 37.2664C5.05799 37.7158 5.28364 37.9401 5.73428 38.1638L26.0178 49.8056C26.6941 50.2537 27.5941 50.2511 28.2678 49.7991L48.4841 38.041C49.6072 37.3628 49.8283 36.0121 49.375 34.8884C49.1488 34.4391 48.9231 34.2147 48.4725 33.991Z" fill="#605F5F" fill-opacity="0.55"/>
</svg>
